<svg width="1348" height="1100" viewBox="0 0 1348 1100" fill="none" xmlns="http://www.w3.org/2000/svg">
<g id="Illustration 19">
<g id="Background" opacity="0.5">
<g id="Background Object / Sofa / 4">
<g id="Group 17">
<path id="Fill 1" fill-rule="evenodd" clip-rule="evenodd" d="M467.239 812.695L439.67 941.115H421.433L449.001 812.695H467.239Z" fill="#CCE3FF"/>
<path id="Fill 2" fill-rule="evenodd" clip-rule="evenodd" d="M910.446 812.695H438.395V792.829H910.446V812.695Z" fill="#D7EBFF"/>
<path id="Fill 3" fill-rule="evenodd" clip-rule="evenodd" d="M538.488 884.637H446.453V864.771H538.488V884.637Z" fill="#D7EBFF"/>
<path id="Fill 4" fill-rule="evenodd" clip-rule="evenodd" d="M812.911 681.958L833.6 792.829H808.634L787.945 681.958H812.911Z" fill="#CCE3FF"/>
<path id="Fill 5" fill-rule="evenodd" clip-rule="evenodd" d="M453.075 681.958L473.763 792.829H448.798L428.109 681.958H453.075Z" fill="#CCE3FF"/>
<path id="Fill 6" fill-rule="evenodd" clip-rule="evenodd" d="M549.091 812.695H438.395V792.83H549.091V812.695Z" fill="#B6D4FF"/>
<path id="Fill 7" fill-rule="evenodd" clip-rule="evenodd" d="M403.211 754.23L406.912 774.1H431.882L428.174 754.23H403.211Z" fill="#CCE3FF"/>
<path id="Fill 8" fill-rule="evenodd" clip-rule="evenodd" d="M428.174 754.23L431.882 774.1H852.027L848.319 754.23H428.174Z" fill="#D7EBFF"/>
<path id="Fill 9" fill-rule="evenodd" clip-rule="evenodd" d="M396.47 718.095L400.171 737.958H425.141L421.433 718.095H396.47Z" fill="#CCE3FF"/>
<path id="Fill 10" fill-rule="evenodd" clip-rule="evenodd" d="M421.433 718.095L425.141 737.958H845.286L841.578 718.095H421.433Z" fill="#D7EBFF"/>
<path id="Fill 11" fill-rule="evenodd" clip-rule="evenodd" d="M414.693 681.96L418.393 701.824H393.431L389.73 681.96H414.693Z" fill="#CCE3FF"/>
<path id="Fill 12" fill-rule="evenodd" clip-rule="evenodd" d="M834.831 681.96L838.539 701.824H418.393L414.692 681.96H834.831Z" fill="#D7EBFF"/>
<path id="Fill 13" fill-rule="evenodd" clip-rule="evenodd" d="M538.488 812.695L566.056 941.115H547.818L520.25 812.695H538.488Z" fill="#CCE3FF"/>
<path id="Fill 14" fill-rule="evenodd" clip-rule="evenodd" d="M828.379 812.695L800.81 941.115H782.574L810.142 812.695H828.379Z" fill="#CCE3FF"/>
<path id="Fill 15" fill-rule="evenodd" clip-rule="evenodd" d="M899.629 884.636H807.593V864.771H899.629V884.636Z" fill="#D7EBFF"/>
<path id="Fill 16" fill-rule="evenodd" clip-rule="evenodd" d="M899.629 812.695L927.197 941.115H908.959L881.392 812.695H899.629Z" fill="#CCE3FF"/>
</g>
</g>
<g id="Background Object / Tree / 5">
<g id="Group 12">
<path id="Fill 1_2" fill-rule="evenodd" clip-rule="evenodd" d="M1024.55 485.176C1024.55 522.381 1000.27 543.137 968.647 543.137C937.022 543.137 912.742 522.381 912.742 485.176C912.742 406.842 948.424 316.536 968.647 316.536C988.87 316.536 1024.55 406.842 1024.55 485.176Z" fill="#CCE3FF"/>
<path id="Stroke 4" d="M968.647 429.836V601.559" stroke="#ECF6FF" stroke-width="8" stroke-linecap="square"/>
<path id="Stroke 6" d="M969.315 520.805L989.101 501.019" stroke="#ECF6FF" stroke-width="8" stroke-linecap="square"/>
<path id="Stroke 8" d="M966.99 483.106L950.799 466.915" stroke="#ECF6FF" stroke-width="8" stroke-linecap="square"/>
<path id="Stroke 10" d="M969.621 457.743L981.981 445.382" stroke="#ECF6FF" stroke-width="8" stroke-linecap="square"/>
</g>
</g>
<g id="Background Object / Trach">
<g id="Group 18">
<path id="Fill 1_3" fill-rule="evenodd" clip-rule="evenodd" d="M372.403 766.631L360.317 941.747H254.188L242.104 766.631C241.723 761.147 246.067 756.49 251.561 756.49H362.944C368.438 756.49 372.784 761.147 372.403 766.631Z" fill="#DCEEFF"/>
<path id="Stroke 3" d="M307.254 795.983V914.08" stroke="#B6D4FF" stroke-width="16" stroke-linecap="round"/>
<path id="Stroke 5" d="M344.9 795.983L336.691 914.08" stroke="#B6D4FF" stroke-width="16" stroke-linecap="round"/>
<path id="Stroke 7" d="M269.607 795.983L277.816 914.08" stroke="#B6D4FF" stroke-width="16" stroke-linecap="round"/>
<path id="Fill 9_2" fill-rule="evenodd" clip-rule="evenodd" d="M376.938 767.5H237.118V760.074C237.118 753.36 242.558 747.918 249.269 747.918H364.787C371.498 747.918 376.938 753.36 376.938 760.074V767.5Z" fill="#DCEEFF"/>
<path id="Stroke 12" d="M242.08 771.803H372.426" stroke="#CCE3FF" stroke-width="14"/>
<path id="Fill 14_2" fill-rule="evenodd" clip-rule="evenodd" d="M281.534 750.49H287.181V737.947H281.534V750.49Z" fill="#DCEEFF"/>
<path id="Fill 16_2" fill-rule="evenodd" clip-rule="evenodd" d="M325.33 749.317H330.977V736.774H325.33V749.317Z" fill="#DCEEFF"/>
<path id="Fill 17" fill-rule="evenodd" clip-rule="evenodd" d="M281.534 739.948H330.977V732.999H281.534V739.948Z" fill="#DCEEFF"/>
</g>
</g>
<g id="Background Object / Tree / 1">
<g id="Group 10">
<path id="Fill 1_4" fill-rule="evenodd" clip-rule="evenodd" d="M322.256 494.062C322.256 537.073 304.447 576.136 264.126 576.136C223.804 576.136 205.995 537.073 205.995 494.062C205.995 443.608 236.465 393.437 264.126 393.437C291.787 393.437 322.256 443.608 322.256 494.062Z" fill="#ECF6FF"/>
<path id="Stroke 4_2" d="M264.126 484.787V607.274" stroke="#DCEEFF" stroke-width="8" stroke-linecap="square"/>
<path id="Stroke 6_2" d="M265.345 540.771L281.079 523.124" stroke="#DCEEFF" stroke-width="8" stroke-linecap="square"/>
<path id="Stroke 8_2" d="M261.807 516.813L246.073 499.166" stroke="#DCEEFF" stroke-width="8" stroke-linecap="square"/>
</g>
</g>
<g id="Background Object / Tree / 2">
<g id="Group 14">
<path id="Fill 1_5" fill-rule="evenodd" clip-rule="evenodd" d="M320.243 436.874C317.671 429.18 303.571 430.483 303.569 409.028C303.565 376.724 348.101 380.411 350.728 356.071C353.354 331.731 324.736 332.313 323.85 311.784C322.964 291.254 344.725 248.893 377.741 248.893C403.775 248.893 382.213 281.579 403.223 296.195C424.234 310.812 448.231 292.086 460.107 315.072C476.466 346.732 434.634 384.757 438.761 409.028C442.889 433.3 467.411 427.561 468.162 454.229C468.912 480.898 433.29 485.591 436.646 508.46C438.761 522.875 461.305 518.062 462.488 546.487C463.489 570.553 386.032 600.332 327.847 551.359C269.662 502.386 330.062 466.241 320.243 436.874Z" fill="#CCE3FF"/>
<path id="Stroke 4_3" d="M384.372 378.58V615.101" stroke="#ECF6FF" stroke-width="8" stroke-linecap="square"/>
<path id="Stroke 6_3" d="M385.592 538.725L416.017 508.332" stroke="#ECF6FF" stroke-width="8" stroke-linecap="square"/>
<path id="Stroke 8_3" d="M385.998 452.154L401.465 436.704" stroke="#ECF6FF" stroke-width="8" stroke-linecap="square"/>
<path id="Stroke 10_2" d="M382.747 486.551L358.486 462.316" stroke="#ECF6FF" stroke-width="8" stroke-linecap="square"/>
<path id="Stroke 12_2" d="M383.307 411.724L371.519 399.949" stroke="#ECF6FF" stroke-width="8" stroke-linecap="square"/>
</g>
</g>
<g id="Background Object / Tree / 3">
<g id="Group 12_2">
<path id="Fill 1_6" fill-rule="evenodd" clip-rule="evenodd" d="M604.035 438.898C604.035 492.26 560.731 535.517 507.313 535.517C453.895 535.517 410.591 492.26 410.591 438.898C410.591 385.536 453.895 342.278 507.313 342.278C560.731 342.278 604.035 385.536 604.035 438.898Z" fill="#ECF6FF"/>
<path id="Stroke 4_4" d="M507.313 410.974V608.598" stroke="#B6D4FF" stroke-width="8"/>
<path id="Stroke 6_4" d="M507.313 502.605L528.845 481.097" stroke="#B6D4FF" stroke-width="8"/>
<path id="Stroke 8_4" d="M508.126 438.044L519.212 426.969" stroke="#B6D4FF" stroke-width="8"/>
<path id="Stroke 10_3" d="M507.313 470.517L486.678 449.904" stroke="#B6D4FF" stroke-width="8"/>
</g>
</g>
<g id="Background Object / Streetlight / 1">
<g id="Group 11">
<path id="Fill 1_7" fill-rule="evenodd" clip-rule="evenodd" d="M1072.2 726.599H1085.2V148.532H1072.2V726.599Z" fill="#D7EBFF"/>
<path id="Fill 2_2" fill-rule="evenodd" clip-rule="evenodd" d="M938.706 163.244L835.885 129.16C831.59 127.736 829.24 123.056 830.664 118.761L835.793 103.289C837.217 98.9936 841.896 96.6444 846.191 98.0679L949.013 132.153C953.308 133.576 955.658 138.256 954.233 142.551L949.104 158.024C947.681 162.319 943.001 164.668 938.706 163.244Z" fill="#ECF6FF"/>
<path id="Fill 4_2" fill-rule="evenodd" clip-rule="evenodd" d="M1053.8 940.92H1103.6V749.336H1053.8V940.92Z" fill="#CCE3FF"/>
<path id="Fill 6_2" fill-rule="evenodd" clip-rule="evenodd" d="M1064.35 785.065H1093.05V719.513H1064.35V785.065Z" fill="#CCE3FF"/>
<path id="Fill 7_2" fill-rule="evenodd" clip-rule="evenodd" d="M1066.76 162.351H1090.64V134.556H1066.76V162.351Z" fill="#CCE3FF"/>
<path id="Stroke 8_5" d="M903.847 117.458C903.847 117.458 1078.7 156.119 1078.7 250.086" stroke="#DCEEFF" stroke-width="15" stroke-linejoin="bevel"/>
<path id="Fill 9_3" fill-rule="evenodd" clip-rule="evenodd" d="M950.187 152.791L837.468 115.425C827.38 112.082 821.863 101.091 825.207 91.0041L826.219 87.9492C829.563 77.8619 840.553 72.3441 850.641 75.6881L963.36 113.054C973.448 116.398 978.965 127.387 975.621 137.475L974.608 140.53C971.264 150.617 960.275 156.135 950.187 152.791Z" fill="#CCE3FF"/>
</g>
</g>
</g>
<g id="Person / Robot / 1">
<g id="Robot / Legs / 2">
<g id="Group 20">
<path id="Fill 1_8" fill-rule="evenodd" clip-rule="evenodd" d="M940.424 1062.03H409.426C411.879 999.043 450.575 972.131 509.589 970.642C548.544 865.102 633.897 972.779 640.04 889.295C647.259 791.121 649.335 675.412 649.335 675.412L699.656 676.245C699.656 676.245 703.858 738.193 712.577 864.399C718.76 953.794 781.75 870.888 864.488 925.064C906.253 952.412 904.39 1018.57 904.39 1018.57C904.39 1018.57 940.424 1020.38 940.424 1062.03Z" fill="#B6D4FF"/>
<path id="Fill 3_2" fill-rule="evenodd" clip-rule="evenodd" d="M591.872 1062.03H461.627C467.293 1034.1 491.482 1013.72 519.973 1010.93C525.437 1010.41 531.052 1010.52 536.73 1011.34C539.999 1011.82 543.178 1012.51 546.257 1013.42C554.699 1015.9 562.345 1019.91 568.882 1025.09C580.68 1034.39 588.907 1047.45 591.872 1062.03Z" fill="#9DC3FB"/>
<path id="Fill 5_2" fill-rule="evenodd" clip-rule="evenodd" d="M881.345 1062.03H810.86C813.749 1049.18 822.948 1038.76 835.049 1034.81C837.901 1033.88 840.916 1033.3 844.058 1033.14C845.863 1033.05 847.654 1033.09 849.396 1033.28C864.752 1034.83 877.585 1046.47 881.345 1062.03Z" fill="#9DC3FB"/>
<path id="Fill 7_3" fill-rule="evenodd" clip-rule="evenodd" d="M766.747 1062.03H565.336C564.503 1054.07 564.692 1045.9 566.004 1037.64C566.686 1033.35 567.657 1029.15 568.881 1025.09C582.812 979.068 630.521 948.933 681.297 956.334C693.297 958.087 704.476 961.788 714.546 967.059C749.46 985.294 770.999 1022.34 766.747 1062.03Z" fill="#9DC3FB"/>
<path id="Fill 9_4" fill-rule="evenodd" clip-rule="evenodd" d="M606.826 879.003C605.175 889.406 595.036 896.555 584.182 894.972C573.326 893.389 565.867 883.673 567.518 873.272C569.17 862.869 579.307 855.72 590.163 857.303C601.017 858.886 608.478 868.601 606.826 879.003Z" fill="#D7DADD"/>
<path id="Fill 11_2" fill-rule="evenodd" clip-rule="evenodd" d="M751.167 882.616C750.486 886.908 746.301 889.859 741.822 889.206C737.341 888.552 734.262 884.543 734.945 880.249C735.626 875.957 739.811 873.006 744.29 873.659C748.77 874.313 751.848 878.322 751.167 882.616Z" fill="#D7DADD"/>
<path id="Fill 13_2" fill-rule="evenodd" clip-rule="evenodd" d="M987.189 1013.34C985.615 1023.25 975.96 1030.06 965.622 1028.55C955.284 1027.04 948.179 1017.79 949.752 1007.88C951.326 997.976 960.981 991.167 971.319 992.674C981.657 994.181 988.762 1003.44 987.189 1013.34Z" fill="#D7DADD"/>
<g id="Legs color">
<path id="Legs" fill-rule="evenodd" clip-rule="evenodd" d="M616.35 638.164H736.578C743.547 638.164 749.196 632.749 749.196 626.072C749.196 619.393 743.547 613.98 736.578 613.98H616.35C609.381 613.98 603.731 619.393 603.731 626.072C603.731 632.749 609.381 638.164 616.35 638.164ZM643.075 689.142H709.854L735.09 638.164H617.838L643.075 689.142Z" fill="#6CA1FF"/>
</g>
<g id="Overlay">
<path id="Fill 16_3" opacity="0.402158" fill-rule="evenodd" clip-rule="evenodd" d="M709.641 689.141H642.862L617.625 638.163H734.877L709.641 689.141Z" fill="black"/>
</g>
</g>
</g>
<g id="Robot / Body / 3">
<g id="Group 24">
<path id="Stroke 1" d="M526.874 938.226L500.282 909.409L538.834 859.896L585.119 900.024L568.426 935.254" stroke="#19141E" stroke-width="15"/>
<path id="Stroke 3_2" d="M815.65 935.85L791.813 904.721L834.744 858.947L877.153 903.142L857.301 936.696" stroke="#19141E" stroke-width="15"/>
<path id="Stroke 5_2" d="M835.218 728.059L816.108 588.045" stroke="#19141E" stroke-width="27" stroke-linecap="round"/>
<path id="Stroke 13" d="M530.005 723.794L550.151 583.926" stroke="#19141E" stroke-width="27" stroke-linecap="round"/>
<path id="Fill 17_2" fill-rule="evenodd" clip-rule="evenodd" d="M755.172 645.738H700.767C692.659 645.738 686.088 639.171 686.088 631.07V576.701C686.088 568.6 692.659 562.033 700.767 562.033H755.172C763.278 562.033 769.85 568.6 769.85 576.701V631.07C769.85 639.171 763.278 645.738 755.172 645.738Z" fill="#19141E"/>
<path id="Fill 18" fill-rule="evenodd" clip-rule="evenodd" d="M741.292 645.738H700.767C692.659 645.738 686.088 639.171 686.088 631.07V576.701C686.088 568.6 692.659 562.033 700.767 562.033H741.292C749.398 562.033 755.97 568.6 755.97 576.701V631.07C755.97 639.171 749.398 645.738 741.292 645.738Z" fill="#405FD3"/>
<g id="Body color">
<path id="Body" fill-rule="evenodd" clip-rule="evenodd" d="M552.372 628.657C551.99 628.667 551.607 628.671 551.223 628.671C525.933 628.671 505.432 608.183 505.432 582.911C505.432 557.639 525.933 537.151 551.223 537.151C556.624 537.151 561.808 538.086 566.619 539.802C589.183 499.23 632.508 471.775 682.25 471.775C729.7 471.775 771.311 496.756 794.631 534.274C799.256 532.704 804.214 531.852 809.37 531.852C834.66 531.852 855.162 552.34 855.162 577.612C855.162 601.649 836.616 621.356 813.044 623.226C803.68 687.02 748.69 735.995 682.25 735.995C617.712 735.995 563.975 689.778 552.372 628.657ZM472.612 755.016C471.222 736.419 485.183 720.219 503.792 718.831L550.544 715.346C569.153 713.957 585.364 727.909 586.752 746.504L594.704 853C596.092 871.596 582.132 887.796 563.524 889.184L516.772 892.671C498.162 894.058 481.952 880.107 480.564 861.511L472.612 755.016ZM811.484 713.057C792.824 712.957 777.615 727.993 777.517 746.641L776.948 853.431C776.848 872.079 791.895 887.276 810.555 887.376L857.437 887.625C876.096 887.725 891.305 872.688 891.404 854.04L891.973 747.25C892.072 728.603 877.025 713.406 858.365 713.305L811.484 713.057Z" fill="#5835E7"/>
</g>
<path id="Fill 11_3" fill-rule="evenodd" clip-rule="evenodd" d="M631.771 481.863H732.733V448.497H631.771V481.863Z" fill="#19141E"/>
<path id="Path" fill-rule="evenodd" clip-rule="evenodd" d="M741.292 645.738C749.398 645.738 755.97 639.171 755.97 631.07V576.701C755.97 568.6 749.398 562.033 741.292 562.033H755.172C763.278 562.033 769.85 568.6 769.85 576.701V631.07C769.85 639.171 763.278 645.738 755.172 645.738H741.292Z" fill="#19141E"/>
<g id="Overlay_2">
<path id="Shape" opacity="0.401762" d="M501.678 752.197L492.706 752.904V752.904L501.678 752.197ZM491.999 743.931L492.706 752.904H492.706L491.999 743.931ZM510.072 858.722L519.044 858.016L510.072 858.722ZM501.806 868.402L502.513 877.374H502.513L501.806 868.402ZM492.127 860.136L483.155 860.843H483.155L492.127 860.136ZM483.734 753.61L492.706 752.904V752.904L483.734 753.61ZM522.483 750.42L513.511 751.127L522.483 750.42ZM512.804 742.155L513.511 751.127L512.804 742.155ZM530.877 856.946L521.905 857.653L530.877 856.946ZM522.611 866.625L523.318 875.598H523.318L522.611 866.625ZM512.932 858.36L521.905 857.653L512.932 858.36ZM504.539 751.834L495.567 752.541L504.539 751.834ZM510.65 751.49C509.869 741.579 501.202 734.178 491.292 734.959L492.706 752.904L492.706 752.904L510.65 751.49ZM519.044 858.016L510.65 751.49L492.706 752.904L501.099 859.429L519.044 858.016ZM502.513 877.374C512.424 876.593 519.825 867.926 519.044 858.016L501.099 859.429L501.099 859.429L502.513 877.374ZM483.155 860.843C483.936 870.754 492.603 878.155 502.513 877.374L501.099 859.429H501.099L483.155 860.843ZM474.761 754.317L483.155 860.843L501.099 859.429L492.706 752.904L474.761 754.317ZM491.292 734.959C481.381 735.74 473.981 744.407 474.761 754.317L492.706 752.904L492.706 752.904L491.292 734.959ZM531.455 749.713C530.674 739.803 522.007 732.402 512.097 733.183L513.511 751.127H513.511L531.455 749.713ZM539.849 856.239L531.455 749.713L513.511 751.127L521.905 857.653L539.849 856.239ZM523.318 875.598C533.229 874.817 540.63 866.15 539.849 856.239L521.905 857.653H521.905L523.318 875.598ZM503.96 859.067C504.741 868.977 513.408 876.378 523.318 875.598L521.905 857.653H521.905L503.96 859.067ZM495.567 752.541L503.96 859.067L521.905 857.653L513.511 751.127L495.567 752.541ZM512.097 733.183C502.187 733.964 494.786 742.631 495.567 752.541L513.511 751.127L512.097 733.183Z" fill="black"/>
<path id="Shape_2" opacity="0.397763" fill-rule="evenodd" clip-rule="evenodd" d="M741.347 645.688H700.821C692.714 645.688 686.142 639.121 686.142 631.019V576.651C686.142 568.55 692.714 561.983 700.821 561.983H741.347C749.453 561.983 756.024 568.55 756.024 576.651V631.019C756.024 639.121 749.453 645.688 741.347 645.688ZM707.754 599.629C713.626 599.629 718.388 594.872 718.388 589.002C718.388 583.133 713.626 578.376 707.754 578.376C701.881 578.376 697.12 583.133 697.12 589.002C697.12 594.872 701.881 599.629 707.754 599.629ZM737.973 599.629C743.846 599.629 748.608 594.872 748.608 589.002C748.608 583.133 743.846 578.376 737.973 578.376C732.101 578.376 727.339 583.133 727.339 589.002C727.339 594.872 732.101 599.629 737.973 599.629ZM707.754 630.343C713.626 630.343 718.388 625.586 718.388 619.716C718.388 613.848 713.626 609.09 707.754 609.09C701.881 609.09 697.12 613.848 697.12 619.716C697.12 625.586 701.881 630.343 707.754 630.343Z" fill="black"/>
<path id="Fill 14_3" opacity="0.404204" fill-rule="evenodd" clip-rule="evenodd" d="M504.062 582.524C504.062 607.796 524.563 628.284 549.852 628.284C575.141 628.284 595.643 607.796 595.643 582.524C595.643 557.252 575.141 536.764 549.852 536.764C524.563 536.764 504.062 557.252 504.062 582.524Z" fill="black"/>
<path id="Fill 16_4" opacity="0.398763" fill-rule="evenodd" clip-rule="evenodd" d="M778.446 746.883L777.877 853.673C777.778 872.321 792.825 887.518 811.484 887.618L858.366 887.867C877.026 887.967 892.235 872.93 892.333 854.282L892.902 747.492C893.002 728.845 877.955 713.648 859.295 713.547L812.413 713.299C793.753 713.199 778.545 728.235 778.446 746.883Z" fill="black"/>
<path id="Path_2" opacity="0.397856" fill-rule="evenodd" clip-rule="evenodd" d="M794.28 534.773C798.905 533.202 803.863 532.351 809.019 532.351C834.309 532.351 854.811 552.839 854.811 578.111C854.811 602.147 836.265 621.855 812.693 623.725C813.62 617.412 814.1 610.954 814.1 604.384C814.1 578.839 806.844 554.986 794.28 534.773H794.28Z" fill="black"/>
<path id="Fill 19" opacity="0.598121" fill-rule="evenodd" clip-rule="evenodd" d="M707.754 630.334C713.626 630.334 718.388 625.576 718.388 619.706C718.388 613.838 713.626 609.08 707.754 609.08C701.881 609.08 697.12 613.838 697.12 619.706C697.12 625.576 701.881 630.334 707.754 630.334Z" fill="black"/>
</g>
</g>
</g>
<g id="Robot / Head / 4">
<g id="Group 24_2">
<path id="Stroke 1_2" d="M763.96 370.479V282.406" stroke="#19141E" stroke-width="7"/>
<path id="Fill 5_3" fill-rule="evenodd" clip-rule="evenodd" d="M771.891 407.861H735.449V353.581H771.891C786.828 353.581 799.049 365.793 799.049 380.72C799.049 395.648 786.828 407.861 771.891 407.861Z" fill="#19141E"/>
<g id="Face color">
<path id="Face" fill-rule="evenodd" clip-rule="evenodd" d="M744.421 265.125C745.682 255.464 753.949 248.004 763.96 248.004C774.842 248.004 783.665 256.821 783.665 267.697C783.665 278.572 774.842 287.389 763.96 287.389C756.001 287.389 749.143 282.673 746.033 275.884L732.291 265.377L713.591 279.674L694.905 265.378L676.214 279.675L657.528 265.378L638.838 279.675L628.522 271.783C626.639 280.698 618.723 287.389 609.242 287.389C598.359 287.389 589.536 278.572 589.536 267.697C589.536 256.821 598.359 248.004 609.242 248.004C618.114 248.004 625.615 253.863 628.085 261.921L638.838 270.147L657.528 255.85L676.215 270.147L694.906 255.85L713.593 270.147L732.291 255.851L744.421 265.125ZM756.842 447.972H615.001C603.708 447.972 594.553 438.824 594.553 427.538V333.904C594.553 322.619 603.708 313.469 615.001 313.469H756.842C768.135 313.469 777.29 322.619 777.29 333.904V427.538C777.29 438.824 768.135 447.972 756.842 447.972ZM628.22 466.506H743.621C748.743 466.506 752.894 462.357 752.894 457.239C752.894 452.121 748.743 447.972 743.621 447.972H628.22C623.1 447.972 618.947 452.121 618.947 457.239C618.947 462.357 623.1 466.506 628.22 466.506Z" fill="#3EC5FF"/>
</g>
<g id="Overlay_3">
<path id="Stroke 21" opacity="0.404367" d="M657.528 265.378L638.838 279.675L628.522 271.858L628.036 261.887L638.838 270.147L657.528 255.85L676.215 270.147L694.906 255.85L713.593 270.147L732.291 255.851L744.255 265.377L746.244 275.949L732.291 265.377L713.591 279.674L694.905 265.378L676.214 279.675L657.528 265.378Z" fill="black"/>
<path id="Fill 9_5" opacity="0.395624" fill-rule="evenodd" clip-rule="evenodd" d="M743.621 466.506H628.22C623.1 466.506 618.947 462.357 618.947 457.239C618.947 452.121 623.1 447.972 628.22 447.972H743.621C748.743 447.972 752.894 452.121 752.894 457.239C752.894 462.357 748.743 466.506 743.621 466.506Z" fill="black"/>
</g>
<path id="Fill 11_4" fill-rule="evenodd" clip-rule="evenodd" d="M588.003 407.861H624.443V353.581H588.003C573.065 353.581 560.844 365.793 560.844 380.72C560.844 395.648 573.065 407.861 588.003 407.861Z" fill="#19141E"/>
<path id="Fill 14_4" fill-rule="evenodd" clip-rule="evenodd" d="M763.96 380.721C763.96 401.476 750.509 418.302 733.917 418.302C717.325 418.302 703.876 401.476 703.876 380.721C703.876 359.965 717.325 343.139 733.917 343.139C750.509 343.139 763.96 359.965 763.96 380.721Z" fill="#19141E"/>
<path id="Fill 16_5" fill-rule="evenodd" clip-rule="evenodd" d="M719.8 418.302H733.917V343.139H719.8V418.302Z" fill="#19141E"/>
<path id="Fill 18_2" fill-rule="evenodd" clip-rule="evenodd" d="M749.842 380.721C749.842 401.476 736.392 418.302 719.799 418.302C703.208 418.302 689.758 401.476 689.758 380.721C689.758 359.965 703.208 343.139 719.799 343.139C736.392 343.139 749.842 359.965 749.842 380.721Z" fill="white"/>
<path id="Fill 19_2" fill-rule="evenodd" clip-rule="evenodd" d="M735.18 378.199C735.18 385.505 730.445 391.428 724.604 391.428C718.763 391.428 714.029 385.505 714.029 378.199C714.029 370.892 718.763 364.969 724.604 364.969C730.445 364.969 735.18 370.892 735.18 378.199Z" fill="#19141E"/>
<path id="Stroke 20" d="M609.241 370.479V286.463" stroke="#19141E" stroke-width="7"/>
</g>
</g>
</g>
</g>
</svg>
